Coordinates
version=1
nRows=13
nColumns=22
inDegrees=yes

Units are S.I. units (second, meters, Newtons, ...)
If the header above contains a line with 'inDegrees', this indicates whether rotational values are in degrees (yes) or radians (no).

endheader
time	pelvis_tilt	pelvis_list	pelvis_rotation	pelvis_tx	pelvis_ty	pelvis_tz	hip_flexion_r	hip_adduction_r	hip_rotation_r	knee_angle_r	ankle_angle_r	subtalar_angle_r	hip_flexion_l	hip_adduction_l	hip_rotation_l	knee_angle_l	ankle_angle_l	subtalar_angle_l	lumbar_extension	lumbar_bending	lumbar_rotation
      2.69000000	      0.36243042	      3.49147786	    -54.75537887	      0.09806764	      0.92678364	     -0.20180986	     30.47296670	     -0.22143663	     -6.05939327	    -39.01984079	      7.79354933	      6.14014725	      3.37736534	      1.81694846	     -5.30195912	    -18.64804868	     15.20814257	     -1.63861478	     -9.86096315	     -8.41525454	    -10.56829299
      2.70000000	      0.41692278	      3.41482397	    -55.15891000	      0.10264564	      0.92612775	     -0.19514534	     30.44987315	     -0.13438048	     -6.47094381	    -35.86317489	      7.40946191	      5.98281169	      2.38801980	      1.86936048	     -5.69996474	    -18.11271634	     15.53882471	     -1.73808514	     -9.97280231	     -8.35889081	    -10.88327083
      2.71000000	      0.49477931	      3.34688043	    -55.55021750	      0.10723740	      0.92532566	     -0.18837334	     30.33572667	     -0.07846194	     -6.91221851	    -32.63527803	      6.96676304	      5.72736897	      1.37749109	      1.95685819	     -6.08430795	    -17.56049149	     15.86300685	     -1.82789769	    -10.08854390	     -8.32398702	    -11.18207015
      2.72000000	      0.59917461	      3.28509892	    -55.93016115	      0.11184857	      0.92437149	     -0.18148288	     30.14202815	     -0.04970737	     -7.37198815	    -29.38333906	      6.48945174	      5.39252606	      0.34404895	      2.07981315	     -6.45792172	    -16.99627140	     16.18605676	     -1.91123781	    -10.20960918	     -8.31149724	    -11.47113848
      2.73000000	      0.72622249	      3.23139667	    -56.29578050	      0.11647642	      0.92324571	     -0.17447171	     29.89112258	     -0.04102968	     -7.83458810	    -26.16104626	      5.99480915	      5.00805063	     -0.69886910	      2.23392249	     -6.81206812	    -16.43742659	     16.51237078	     -1.98767365	    -10.33110494	     -8.32004347	    -11.75144318
      2.74000000	      0.87682448	      3.18331066	    -56.64633086	      0.12113271	      0.92194716	     -0.16733383	     29.60212783	     -0.05389986	     -8.30262256	    -23.03593326	      5.51846139	      4.59270221	     -1.75146727	      2.41851098	     -7.13342709	    -15.88899142	     16.83945346	     -2.05695908	    -10.45401169	     -8.34654038	    -12.02229328
      2.75000000	      1.03850221	      3.14272077	    -56.97305540	      0.12580894	      0.92046305	     -0.16008730	     29.30436796	     -0.08284554	     -8.77706329	    -20.07010607	      5.06270716	      4.19960267	     -2.77781601	      2.61586383	     -7.43209858	    -15.39908491	     17.18611272	     -2.11703058	    -10.57134022	     -8.38036387	    -12.29700303
      2.76000000	      1.21075697	      3.10830855	    -57.27587486	      0.13051960	      0.91880534	     -0.15271869	     29.02197986	     -0.13211339	     -9.27402094	    -17.34488599	      4.68046294	      3.83173031	     -3.78220458	      2.82550817	     -7.68132214	    -14.96262606	     17.54037509	     -2.16545838	    -10.67911479	     -8.42032728	    -12.57555228
      2.77000000	      1.37817374	      3.08196658	    -57.54608380	      0.13526222	      0.91698235	     -0.14524755	     28.78195457	     -0.19595714	     -9.80038687	    -14.92247601	      4.38044277	      3.51622374	     -4.73382707	      3.02816193	     -7.87875924	    -14.61497868	     17.90863433	     -2.19989882	    -10.76989766	     -8.45077730	    -12.86358498
      2.78000000	      1.51505658	      3.07349245	    -57.77364954	      0.14004276	      0.91499242	     -0.13768932	     28.62319447	     -0.26585870	    -10.37772901	    -12.86325167	      4.12838433	      3.27909611	     -5.59341183	      3.19996168	     -8.02170232	    -14.38373273	     18.30321759	     -2.21772372	    -10.81755025	     -8.45090179	    -13.17288113
      2.79000000	      1.63758187	      3.05889278	    -57.96004734	      0.14485542	      0.91291808	     -0.13003265	     28.51281976	     -0.34178028	    -10.97349828	    -11.20006979	      4.04449867	      3.09195498	     -6.38851201	      3.33953777	     -8.09251457	    -14.27771616	     18.69917430	     -2.21827655	    -10.86056047	     -8.42534248	    -13.49738050
      2.80000000	      1.71760031	      3.05728637	    -58.10218815	      0.14969737	      0.91075246	     -0.12228463	     28.48928518	     -0.41515509	    -11.58880634	     -9.96439484	      4.05168714	      2.95978977	     -7.07506127	      3.42723112	     -8.10488945	    -14.31529493	     19.09496732	     -2.19924534	    -10.86029625	     -8.35833324	    -13.83810408
      2.81000000	      1.74744549	      3.06503859	    -58.20022366	      0.15457144	      0.90854362	     -0.11443794	     28.54415072	     -0.47902588	    -12.19905677	     -9.15884226	      4.12662061	      2.86125863	     -7.65251177	      3.45316521	     -8.05365078	    -14.49606755	     19.47974423	     -2.15962378	    -10.81721649	     -8.23952770	    -14.19588274
